<svg width="393" height="159" viewBox="0 0 393 159" fill="none" xmlns="http://www.w3.org/2000/svg">
<path d="M426.5 -76C426.5 -45.402 420.473 -15.1036 408.764 13.1653C397.055 41.4341 379.892 67.1199 358.256 88.7559C336.62 110.392 310.934 127.555 282.665 139.264C254.396 150.973 224.098 157 193.5 157C162.902 157 132.604 150.973 104.335 139.264C76.0659 127.555 50.3802 110.392 28.7441 88.7559C7.10806 67.1198 -10.0546 41.4341 -21.7639 13.1652C-33.4733 -15.1036 -39.5 -45.402 -39.5 -76L193.5 -76H426.5Z" fill="#235DFF" fill-opacity="0.22"/>
<path d="M422 -74C422 -43.402 415.973 -13.1036 404.264 15.1653C392.555 43.4341 375.392 69.1199 353.756 90.7559C332.12 112.392 306.434 129.555 278.165 141.264C249.896 152.973 219.598 159 189 159C158.402 159 128.104 152.973 99.8347 141.264C71.5659 129.555 45.8802 112.392 24.2441 90.7559C2.60806 69.1198 -14.5546 43.4341 -26.2639 15.1652C-37.9733 -13.1036 -44 -43.402 -44 -74L189 -74H422Z" fill="#235DFF"/>
<path d="M103.825 92.75C98.825 92.75 94.675 92.05 91.375 90.65C88.075 89.2 85.575 87.325 83.875 85.025C82.175 82.725 81.275 80.275 81.175 77.675C81.175 77.275 81.325 76.925 81.625 76.625C81.975 76.275 82.375 76.1 82.825 76.1H92.275C92.975 76.1 93.5 76.225 93.85 76.475C94.25 76.725 94.6 77.05 94.9 77.45C95.3 78.2 95.85 78.925 96.55 79.625C97.3 80.325 98.25 80.9 99.4 81.35C100.6 81.75 102.075 81.95 103.825 81.95C106.725 81.95 108.9 81.5 110.35 80.6C111.85 79.7 112.6 78.475 112.6 76.925C112.6 75.825 112.2 74.925 111.4 74.225C110.6 73.475 109.3 72.825 107.5 72.275C105.75 71.675 103.4 71.075 100.45 70.475C96.65 69.675 93.4 68.65 90.7 67.4C88.05 66.1 86.025 64.425 84.625 62.375C83.225 60.275 82.525 57.675 82.525 54.575C82.525 51.525 83.375 48.8 85.075 46.4C86.825 44 89.25 42.125 92.35 40.775C95.45 39.425 99.125 38.75 103.375 38.75C106.825 38.75 109.85 39.2 112.45 40.1C115.1 41 117.325 42.2 119.125 43.7C120.925 45.2 122.275 46.8 123.175 48.5C124.125 50.15 124.625 51.775 124.675 53.375C124.675 53.775 124.525 54.15 124.225 54.5C123.925 54.8 123.55 54.95 123.1 54.95H113.2C112.65 54.95 112.175 54.85 111.775 54.65C111.375 54.45 111.025 54.125 110.725 53.675C110.425 52.575 109.625 51.625 108.325 50.825C107.075 49.975 105.425 49.55 103.375 49.55C101.175 49.55 99.45 49.95 98.2 50.75C97 51.5 96.4 52.675 96.4 54.275C96.4 55.275 96.725 56.15 97.375 56.9C98.075 57.65 99.2 58.3 100.75 58.85C102.35 59.4 104.525 59.975 107.275 60.575C111.825 61.425 115.5 62.5 118.3 63.8C121.1 65.05 123.15 66.7 124.45 68.75C125.75 70.75 126.4 73.275 126.4 76.325C126.4 79.725 125.425 82.675 123.475 85.175C121.575 87.625 118.925 89.5 115.525 90.8C112.125 92.1 108.225 92.75 103.825 92.75ZM151.083 92.75C145.183 92.75 140.483 91.15 136.983 87.95C133.483 84.75 131.658 80 131.508 73.7C131.508 73.35 131.508 72.9 131.508 72.35C131.508 71.8 131.508 71.375 131.508 71.075C131.658 67.125 132.533 63.75 134.133 60.95C135.783 58.1 138.033 55.95 140.883 54.5C143.783 53 147.158 52.25 151.008 52.25C155.408 52.25 159.033 53.125 161.883 54.875C164.783 56.625 166.958 59 168.408 62C169.858 65 170.583 68.425 170.583 72.275V74.075C170.583 74.625 170.383 75.075 169.983 75.425C169.633 75.775 169.208 75.95 168.708 75.95H144.708C144.708 76 144.708 76.075 144.708 76.175C144.708 76.275 144.708 76.375 144.708 76.475C144.758 77.925 145.008 79.25 145.458 80.45C145.908 81.65 146.608 82.6 147.558 83.3C148.508 84 149.658 84.35 151.008 84.35C152.008 84.35 152.833 84.2 153.483 83.9C154.183 83.55 154.758 83.175 155.208 82.775C155.658 82.325 156.008 81.95 156.258 81.65C156.708 81.15 157.058 80.85 157.308 80.75C157.608 80.6 158.058 80.525 158.658 80.525H167.958C168.458 80.525 168.858 80.675 169.158 80.975C169.508 81.225 169.658 81.6 169.608 82.1C169.558 82.95 169.133 83.975 168.333 85.175C167.533 86.375 166.358 87.575 164.808 88.775C163.308 89.925 161.408 90.875 159.108 91.625C156.808 92.375 154.133 92.75 151.083 92.75ZM144.708 68.525H157.383V68.375C157.383 66.775 157.133 65.375 156.633 64.175C156.183 62.975 155.458 62.05 154.458 61.4C153.508 60.75 152.358 60.425 151.008 60.425C149.658 60.425 148.508 60.75 147.558 61.4C146.658 62.05 145.958 62.975 145.458 64.175C144.958 65.375 144.708 66.775 144.708 68.375V68.525ZM195.614 92.75C189.714 92.75 185.014 91.15 181.514 87.95C178.014 84.75 176.189 80 176.039 73.7C176.039 73.35 176.039 72.9 176.039 72.35C176.039 71.8 176.039 71.375 176.039 71.075C176.189 67.125 177.064 63.75 178.664 60.95C180.314 58.1 182.564 55.95 185.414 54.5C188.314 53 191.689 52.25 195.539 52.25C199.939 52.25 203.564 53.125 206.414 54.875C209.314 56.625 211.489 59 212.939 62C214.389 65 215.114 68.425 215.114 72.275V74.075C215.114 74.625 214.914 75.075 214.514 75.425C214.164 75.775 213.739 75.95 213.239 75.95H189.239C189.239 76 189.239 76.075 189.239 76.175C189.239 76.275 189.239 76.375 189.239 76.475C189.289 77.925 189.539 79.25 189.989 80.45C190.439 81.65 191.139 82.6 192.089 83.3C193.039 84 194.189 84.35 195.539 84.35C196.539 84.35 197.364 84.2 198.014 83.9C198.714 83.55 199.289 83.175 199.739 82.775C200.189 82.325 200.539 81.95 200.789 81.65C201.239 81.15 201.589 80.85 201.839 80.75C202.139 80.6 202.589 80.525 203.189 80.525H212.489C212.989 80.525 213.389 80.675 213.689 80.975C214.039 81.225 214.189 81.6 214.139 82.1C214.089 82.95 213.664 83.975 212.864 85.175C212.064 86.375 210.889 87.575 209.339 88.775C207.839 89.925 205.939 90.875 203.639 91.625C201.339 92.375 198.664 92.75 195.614 92.75ZM189.239 68.525H201.914V68.375C201.914 66.775 201.664 65.375 201.164 64.175C200.714 62.975 199.989 62.05 198.989 61.4C198.039 60.75 196.889 60.425 195.539 60.425C194.189 60.425 193.039 60.75 192.089 61.4C191.189 62.05 190.489 62.975 189.989 64.175C189.489 65.375 189.239 66.775 189.239 68.375V68.525ZM224.021 92C223.471 92 223.021 91.825 222.671 91.475C222.321 91.125 222.146 90.675 222.146 90.125V54.875C222.146 54.375 222.321 53.95 222.671 53.6C223.021 53.2 223.471 53 224.021 53H232.646C233.196 53 233.646 53.2 233.996 53.6C234.346 53.95 234.521 54.375 234.521 54.875V57.875C235.871 56.325 237.471 55.125 239.321 54.275C241.221 53.425 243.346 53 245.696 53H248.996C249.496 53 249.921 53.175 250.271 53.525C250.671 53.875 250.871 54.325 250.871 54.875V62.6C250.871 63.1 250.671 63.55 250.271 63.95C249.921 64.3 249.496 64.475 248.996 64.475H241.721C239.671 64.475 238.071 65.05 236.921 66.2C235.821 67.3 235.271 68.875 235.271 70.925V90.125C235.271 90.675 235.071 91.125 234.671 91.475C234.321 91.825 233.871 92 233.321 92H224.021ZM258.903 92C258.353 92 257.903 91.825 257.553 91.475C257.203 91.125 257.028 90.675 257.028 90.125V41.375C257.028 40.825 257.203 40.375 257.553 40.025C257.903 39.675 258.353 39.5 258.903 39.5H293.928C294.478 39.5 294.928 39.675 295.278 40.025C295.628 40.375 295.803 40.825 295.803 41.375V48.425C295.803 48.975 295.628 49.425 295.278 49.775C294.928 50.125 294.478 50.3 293.928 50.3H270.003V60.425H292.278C292.828 60.425 293.278 60.625 293.628 61.025C293.978 61.375 294.153 61.825 294.153 62.375V68.9C294.153 69.4 293.978 69.85 293.628 70.25C293.278 70.6 292.828 70.775 292.278 70.775H270.003V81.2H294.528C295.078 81.2 295.528 81.375 295.878 81.725C296.228 82.075 296.403 82.525 296.403 83.075V90.125C296.403 90.675 296.228 91.125 295.878 91.475C295.528 91.825 295.078 92 294.528 92H258.903Z" fill="white"/>
</svg>
