<?xml version="1.0" encoding="utf-8"?>
<!-- Generator: Adobe Illustrator 24.3.0, SVG Export Plug-In . SVG Version: 6.00 Build 0)  -->
<svg version="1.1" id="Layer_1" xmlns="http://www.w3.org/2000/svg" xmlns:xlink="http://www.w3.org/1999/xlink" x="0px" y="0px"
	 viewBox="0 0 500 500" style="enable-background:new 0 0 500 500;" xml:space="preserve">
<style type="text/css">
	.st0{display:none;}
	.st1{display:inline;fill:#151515;}
	.st2{fill:url(#SVGID_1_);}
	.st3{fill:url(#SVGID_2_);}
	.st4{fill:url(#SVGID_3_);}
	.st5{fill:url(#SVGID_4_);}
	.st6{fill:url(#SVGID_5_);}
	.st7{fill:url(#SVGID_6_);}
	.st8{fill:#2F66F6;}
	
		.st9{fill:url(#SVGID_7_);stroke:url(#SVGID_8_);stroke-width:0.75;stroke-linecap:round;stroke-linejoin:round;stroke-miterlimit:10;}
	
		.st10{fill:url(#SVGID_9_);stroke:url(#SVGID_10_);stroke-width:0.75;stroke-linecap:round;stroke-linejoin:round;stroke-miterlimit:10;}
	.st11{fill:none;stroke:url(#SVGID_11_);stroke-width:2;stroke-linecap:round;stroke-linejoin:round;stroke-miterlimit:10;}
	
		.st12{fill:url(#SVGID_12_);stroke:url(#SVGID_13_);stroke-width:0.75;stroke-linecap:round;stroke-linejoin:round;stroke-miterlimit:10;}
	
		.st13{fill:url(#SVGID_14_);stroke:url(#SVGID_15_);stroke-width:0.75;stroke-linecap:round;stroke-linejoin:round;stroke-miterlimit:10;}
	.st14{fill:none;stroke:#618BF8;stroke-width:0.75;stroke-miterlimit:10;}
	.st15{fill:none;stroke:#2F66F6;stroke-width:1.1;stroke-miterlimit:10;}
</style>
<g id="BACKGROUND" class="st0">
	<rect y="0" class="st1" width="500" height="500"/>
</g>
<g id="OBJECTS">
	<g>
		<g>
			
				<linearGradient id="SVGID_1_" gradientUnits="userSpaceOnUse" x1="-444.9837" y1="2800.7205" x2="-443.9837" y2="2800.7205" gradientTransform="matrix(51.6818 89.5154 -89.5154 51.6818 273980.75 -104768.875)">
				<stop  offset="0" style="stop-color:#898993"/>
				<stop  offset="2.620000e-02" style="stop-color:#9696A1"/>
				<stop  offset="0.1268" style="stop-color:#C6C6D1"/>
				<stop  offset="0.2037" style="stop-color:#E3E3EF"/>
				<stop  offset="0.2472" style="stop-color:#EEEEFA"/>
				<stop  offset="0.3576" style="stop-color:#C3C3CF"/>
				<stop  offset="0.4589" style="stop-color:#A3A3AE"/>
				<stop  offset="0.5435" style="stop-color:#90909A"/>
				<stop  offset="0.6009" style="stop-color:#898993"/>
				<stop  offset="0.6094" style="stop-color:#9A9AA4"/>
				<stop  offset="0.6258" style="stop-color:#B4B4BF"/>
				<stop  offset="0.6446" style="stop-color:#C9C9D5"/>
				<stop  offset="0.6667" style="stop-color:#DADAE6"/>
				<stop  offset="0.6939" style="stop-color:#E6E6F1"/>
				<stop  offset="0.7321" style="stop-color:#ECECF8"/>
				<stop  offset="0.8382" style="stop-color:#EEEEFA"/>
				<stop  offset="0.8421" style="stop-color:#ECECF8"/>
				<stop  offset="0.9475" style="stop-color:#BFBFC8"/>
				<stop  offset="1" style="stop-color:#AEAEB6"/>
			</linearGradient>
			<polygon class="st2" points="279.8,160 283.8,150.6 270.3,142.8 283.8,150.6 			"/>
			
				<linearGradient id="SVGID_2_" gradientUnits="userSpaceOnUse" x1="-444.9837" y1="2801.2981" x2="-443.9837" y2="2801.2981" gradientTransform="matrix(51.6818 89.5154 -89.5154 51.6818 273980.75 -104768.875)">
				<stop  offset="0" style="stop-color:#898993"/>
				<stop  offset="2.620000e-02" style="stop-color:#9696A1"/>
				<stop  offset="0.1268" style="stop-color:#C6C6D1"/>
				<stop  offset="0.2037" style="stop-color:#E3E3EF"/>
				<stop  offset="0.2472" style="stop-color:#EEEEFA"/>
				<stop  offset="0.3576" style="stop-color:#C3C3CF"/>
				<stop  offset="0.4589" style="stop-color:#A3A3AE"/>
				<stop  offset="0.5435" style="stop-color:#90909A"/>
				<stop  offset="0.6009" style="stop-color:#898993"/>
				<stop  offset="0.6094" style="stop-color:#9A9AA4"/>
				<stop  offset="0.6258" style="stop-color:#B4B4BF"/>
				<stop  offset="0.6446" style="stop-color:#C9C9D5"/>
				<stop  offset="0.6667" style="stop-color:#DADAE6"/>
				<stop  offset="0.6939" style="stop-color:#E6E6F1"/>
				<stop  offset="0.7321" style="stop-color:#ECECF8"/>
				<stop  offset="0.8382" style="stop-color:#EEEEFA"/>
				<stop  offset="0.8421" style="stop-color:#ECECF8"/>
				<stop  offset="0.9475" style="stop-color:#BFBFC8"/>
				<stop  offset="1" style="stop-color:#AEAEB6"/>
			</linearGradient>
			<path class="st3" d="M165.5,209.6c0.1-0.2,0.3-0.4,0.6-0.6c0.6-0.4,1.3-0.9,2-1.3c5.2-32.6,33.5-57.6,67.5-57.6
				c29.2,0,54.1,18.4,63.9,44.2l1.3,0.2c1.1,0.1,2.1,0.3,3.2,0.4c-0.5-1.6-1.1-3.1-1.8-4.6l-0.3-0.7l0.6-0.4l7.5-5.6l-7-12.1
				l-8.6,3.7l-0.7,0.3l-0.4-0.6c-4.1-5.4-8.8-10.1-14.2-14.2l-0.6-0.4l0.3-0.7l3.7-8.6l-12.1-7l-5.6,7.5l-0.4,0.6l-0.7-0.3
				c-6.1-2.6-12.7-4.3-19.4-5.2l-0.7-0.1l-0.1-0.7l-1.1-9.3h-14l-1.1,9.3l-0.1,0.7l-0.7,0.1c-6.7,0.8-13.3,2.6-19.4,5.2l-0.7,0.3
				l-0.4-0.6l-5.6-7.5l-12.1,7l3.7,8.6l0.3,0.7l-0.6,0.4c-5.4,4.1-10.1,8.8-14.2,14.2l-0.4,0.6l-0.7-0.3l-8.6-3.7l-7,12.1l7.5,5.6
				l0.6,0.4l-0.3,0.7c-2.6,6.1-4.3,12.6-5.2,19.3c0.1,0,0.2,0,0.3,0C164.5,209.6,165,209.6,165.5,209.6z"/>
			
				<linearGradient id="SVGID_3_" gradientUnits="userSpaceOnUse" x1="-444.9837" y1="2801.3391" x2="-443.9837" y2="2801.3391" gradientTransform="matrix(51.6818 89.5154 -89.5154 51.6818 273980.75 -104768.875)">
				<stop  offset="0" style="stop-color:#898993"/>
				<stop  offset="2.620000e-02" style="stop-color:#9696A1"/>
				<stop  offset="0.1268" style="stop-color:#C6C6D1"/>
				<stop  offset="0.2037" style="stop-color:#E3E3EF"/>
				<stop  offset="0.2472" style="stop-color:#EEEEFA"/>
				<stop  offset="0.3576" style="stop-color:#C3C3CF"/>
				<stop  offset="0.4589" style="stop-color:#A3A3AE"/>
				<stop  offset="0.5435" style="stop-color:#90909A"/>
				<stop  offset="0.6009" style="stop-color:#898993"/>
				<stop  offset="0.6094" style="stop-color:#9A9AA4"/>
				<stop  offset="0.6258" style="stop-color:#B4B4BF"/>
				<stop  offset="0.6446" style="stop-color:#C9C9D5"/>
				<stop  offset="0.6667" style="stop-color:#DADAE6"/>
				<stop  offset="0.6939" style="stop-color:#E6E6F1"/>
				<stop  offset="0.7321" style="stop-color:#ECECF8"/>
				<stop  offset="0.8382" style="stop-color:#EEEEFA"/>
				<stop  offset="0.8421" style="stop-color:#ECECF8"/>
				<stop  offset="0.9475" style="stop-color:#BFBFC8"/>
				<stop  offset="1" style="stop-color:#AEAEB6"/>
			</linearGradient>
			<path class="st4" d="M235.6,150.1c-34,0-62.3,25-67.5,57.6c0.3-0.2,0.7-0.4,1.1-0.7c5.5-31.8,33.1-56,66.5-56
				c28.7,0,53.1,17.9,62.9,43.1l1,0.1C289.7,168.5,264.8,150.1,235.6,150.1z"/>
			
				<linearGradient id="SVGID_4_" gradientUnits="userSpaceOnUse" x1="-449.7053" y1="2812.2734" x2="-448.7053" y2="2812.2734" gradientTransform="matrix(82.8901 -143.5699 143.5699 82.8901 -366298.4062 -297389.7188)">
				<stop  offset="0" style="stop-color:#EEEEFA"/>
				<stop  offset="9.580000e-02" style="stop-color:#C3C3CF"/>
				<stop  offset="0.1837" style="stop-color:#A3A3AE"/>
				<stop  offset="0.257" style="stop-color:#90909A"/>
				<stop  offset="0.3068" style="stop-color:#898993"/>
				<stop  offset="0.3168" style="stop-color:#9A9AA4"/>
				<stop  offset="0.3363" style="stop-color:#B4B4BF"/>
				<stop  offset="0.3587" style="stop-color:#C9C9D5"/>
				<stop  offset="0.3849" style="stop-color:#DADAE6"/>
				<stop  offset="0.4173" style="stop-color:#E6E6F1"/>
				<stop  offset="0.4627" style="stop-color:#ECECF8"/>
				<stop  offset="0.5888" style="stop-color:#EEEEFA"/>
				<stop  offset="0.5991" style="stop-color:#EBEBF7"/>
				<stop  offset="0.6998" style="stop-color:#D0D0DA"/>
				<stop  offset="0.8006" style="stop-color:#BDBDC6"/>
				<stop  offset="0.9009" style="stop-color:#B2B2BA"/>
				<stop  offset="1" style="stop-color:#AEAEB6"/>
			</linearGradient>
			<path class="st5" d="M235.6,150.1c-34,0-62.3,25-67.5,57.6c0.3-0.2,0.7-0.4,1.1-0.7c5.5-31.8,33.1-56,66.5-56
				c28.7,0,53.1,17.9,62.9,43.1l1,0.1C289.7,168.5,264.8,150.1,235.6,150.1z"/>
			
				<linearGradient id="SVGID_5_" gradientUnits="userSpaceOnUse" x1="-444.9837" y1="2801.2949" x2="-443.9837" y2="2801.2949" gradientTransform="matrix(51.6818 89.5154 -89.5154 51.6818 273980.75 -104768.875)">
				<stop  offset="0" style="stop-color:#898993"/>
				<stop  offset="2.620000e-02" style="stop-color:#9696A1"/>
				<stop  offset="0.1268" style="stop-color:#C6C6D1"/>
				<stop  offset="0.2037" style="stop-color:#E3E3EF"/>
				<stop  offset="0.2472" style="stop-color:#EEEEFA"/>
				<stop  offset="0.3576" style="stop-color:#C3C3CF"/>
				<stop  offset="0.4589" style="stop-color:#A3A3AE"/>
				<stop  offset="0.5435" style="stop-color:#90909A"/>
				<stop  offset="0.6009" style="stop-color:#898993"/>
				<stop  offset="0.6094" style="stop-color:#9A9AA4"/>
				<stop  offset="0.6258" style="stop-color:#B4B4BF"/>
				<stop  offset="0.6446" style="stop-color:#C9C9D5"/>
				<stop  offset="0.6667" style="stop-color:#DADAE6"/>
				<stop  offset="0.6939" style="stop-color:#E6E6F1"/>
				<stop  offset="0.7321" style="stop-color:#ECECF8"/>
				<stop  offset="0.8382" style="stop-color:#EEEEFA"/>
				<stop  offset="0.8421" style="stop-color:#ECECF8"/>
				<stop  offset="0.9475" style="stop-color:#BFBFC8"/>
				<stop  offset="1" style="stop-color:#AEAEB6"/>
			</linearGradient>
			<path class="st6" d="M311.3,183.8l-7.8-13.5l-9.3,4c-4.1-5.4-8.9-10.3-14.4-14.4l4-9.3l-13.5-7.8l-6.1,8.2
				c-6.2-2.6-12.8-4.4-19.6-5.2l-1.2-10.1h-15.6l-1.2,10.1c-6.9,0.8-13.5,2.6-19.6,5.2l-6.1-8.2l-13.5,7.8l4,9.3
				c-5.4,4.1-10.3,8.9-14.4,14.4l-9.3-4l-7.8,13.5l8.2,6.1c-2.6,6.2-4.4,12.7-5.2,19.6c0.3,0,0.6,0,0.9,0c0.8-6.7,2.6-13.2,5.2-19.3
				l0.3-0.7l-0.6-0.4l-7.5-5.6l7-12.1l8.6,3.7l0.7,0.3l0.4-0.6c4.1-5.4,8.8-10.1,14.2-14.2l0.6-0.4l-0.3-0.7l-3.7-8.6l12.1-7
				l5.6,7.5l0.4,0.6l0.7-0.3c6.1-2.6,12.7-4.3,19.4-5.2l0.7-0.1l0.1-0.7l1.1-9.3h14l1.1,9.3l0.1,0.7l0.7,0.1
				c6.7,0.8,13.3,2.6,19.4,5.2l0.7,0.3l0.4-0.6l5.6-7.5l12.1,7l-3.7,8.6l-0.3,0.7l0.6,0.4c5.4,4.1,10.1,8.8,14.2,14.2l0.4,0.6
				l0.7-0.3l8.6-3.7l7,12.1l-7.5,5.6l-0.6,0.4l0.3,0.7c0.6,1.5,1.2,3.1,1.8,4.6c0.3,0,0.7,0.1,1,0.1c-0.6-1.7-1.2-3.4-1.9-5.1
				L311.3,183.8z"/>
			
				<linearGradient id="SVGID_6_" gradientUnits="userSpaceOnUse" x1="-449.7053" y1="2812.2456" x2="-448.7053" y2="2812.2456" gradientTransform="matrix(82.8901 -143.5699 143.5699 82.8901 -366298.4062 -297389.7188)">
				<stop  offset="0" style="stop-color:#EEEEFA"/>
				<stop  offset="9.580000e-02" style="stop-color:#C3C3CF"/>
				<stop  offset="0.1837" style="stop-color:#A3A3AE"/>
				<stop  offset="0.257" style="stop-color:#90909A"/>
				<stop  offset="0.3068" style="stop-color:#898993"/>
				<stop  offset="0.3168" style="stop-color:#9A9AA4"/>
				<stop  offset="0.3363" style="stop-color:#B4B4BF"/>
				<stop  offset="0.3587" style="stop-color:#C9C9D5"/>
				<stop  offset="0.3849" style="stop-color:#DADAE6"/>
				<stop  offset="0.4173" style="stop-color:#E6E6F1"/>
				<stop  offset="0.4627" style="stop-color:#ECECF8"/>
				<stop  offset="0.5888" style="stop-color:#EEEEFA"/>
				<stop  offset="0.5991" style="stop-color:#EBEBF7"/>
				<stop  offset="0.6998" style="stop-color:#D0D0DA"/>
				<stop  offset="0.8006" style="stop-color:#BDBDC6"/>
				<stop  offset="0.9009" style="stop-color:#B2B2BA"/>
				<stop  offset="1" style="stop-color:#AEAEB6"/>
			</linearGradient>
			<path class="st7" d="M311.3,183.8l-7.8-13.5l-9.3,4c-4.1-5.4-8.9-10.3-14.4-14.4l4-9.3l-13.5-7.8l-6.1,8.2
				c-6.2-2.6-12.8-4.4-19.6-5.2l-1.2-10.1h-15.6l-1.2,10.1c-6.9,0.8-13.5,2.6-19.6,5.2l-6.1-8.2l-13.5,7.8l4,9.3
				c-5.4,4.1-10.3,8.9-14.4,14.4l-9.3-4l-7.8,13.5l8.2,6.1c-2.6,6.2-4.4,12.7-5.2,19.6c0.3,0,0.6,0,0.9,0c0.8-6.7,2.6-13.2,5.2-19.3
				l0.3-0.7l-0.6-0.4l-7.5-5.6l7-12.1l8.6,3.7l0.7,0.3l0.4-0.6c4.1-5.4,8.8-10.1,14.2-14.2l0.6-0.4l-0.3-0.7l-3.7-8.6l12.1-7
				l5.6,7.5l0.4,0.6l0.7-0.3c6.1-2.6,12.7-4.3,19.4-5.2l0.7-0.1l0.1-0.7l1.1-9.3h14l1.1,9.3l0.1,0.7l0.7,0.1
				c6.7,0.8,13.3,2.6,19.4,5.2l0.7,0.3l0.4-0.6l5.6-7.5l12.1,7l-3.7,8.6l-0.3,0.7l0.6,0.4c5.4,4.1,10.1,8.8,14.2,14.2l0.4,0.6
				l0.7-0.3l8.6-3.7l7,12.1l-7.5,5.6l-0.6,0.4l0.3,0.7c0.6,1.5,1.2,3.1,1.8,4.6c0.3,0,0.7,0.1,1,0.1c-0.6-1.7-1.2-3.4-1.9-5.1
				L311.3,183.8z"/>
			<path class="st8" d="M235.6,156.5c-29,0-53.4,20-60.2,46.9c1.4-0.7,2.8-1.5,4.3-2.2c7.4-23.8,29.6-41.1,55.8-41.1
				c23,0,42.9,13.3,52.4,32.6l4.2,0.6C282.6,171.6,260.8,156.5,235.6,156.5z"/>
			<path class="st8" d="M235.6,160.5c-25.8,0-47.8,17-55.3,40.4c0.2-0.1,0.4-0.2,0.6-0.3c7.6-23,29.2-39.7,54.7-39.7
				c22.4,0,41.8,12.9,51.4,31.6l0.5,0.1C278,173.6,258.3,160.5,235.6,160.5z"/>
			<path class="st8" d="M235.6,155.6c-29.8,0-54.7,20.7-61.3,48.4c0.2-0.1,0.4-0.2,0.5-0.3c6.7-27.3,31.4-47.7,60.7-47.7
				c25.5,0,47.5,15.4,57.2,37.3l0.5,0.1C283.6,171.1,261.4,155.6,235.6,155.6z"/>
			<path class="st8" d="M235.6,160.5c22.7,0,42.4,13.1,51.9,32.1l0.5,0.1c-9.6-19.3-29.5-32.6-52.4-32.6
				c-26.2,0-48.4,17.3-55.8,41.1c0.2-0.1,0.4-0.2,0.6-0.3C187.8,177.5,209.7,160.5,235.6,160.5z"/>
			<path class="st8" d="M235.6,156.5c25.2,0,47,15.1,56.7,36.8l0.5,0.1c-9.7-22-31.7-37.3-57.2-37.3c-29.4,0-54,20.3-60.7,47.7
				c0.2-0.1,0.3-0.2,0.5-0.3C182.2,176.5,206.6,156.5,235.6,156.5z"/>
		</g>
		<g>
			<g>
				<path class="st8" d="M82.9,241.7c2.4-2.4,5.1-4.7,8.1-7c3.9-3,8.2-5.8,12.8-8.3c4.9-2.6,9.6-4.7,14.1-6.1
					c1.9-0.7,3.8-1.2,5.7-1.7c0.6-0.1,1.2-0.3,1.7-0.4c2.4-0.5,5-1,7.6-1.4c5.8-0.8,12.1-1.2,19.3-1.2c3.4,0,7.2,0.1,11.5,0.3
					c4.1,0.2,8.2,0.4,12.2,0.7c5.9,0.4,12.1,0.7,18.1,0.9c4.4,0.2,8.9,0.3,13.6,0.3c17.1,0,34-1.4,46.8-2.6
					c18-1.7,36.3-3.7,55.8-6.1c-16.7,3.9-34.9,7.2-55.4,10c-10.6,1.5-20.6,2.5-30.4,3.2c-6.1,0.4-12.5,0.6-19,0.6
					c-3.8,0-7.7-0.1-11.6-0.2c-7.1-0.3-14.3-0.8-21.3-1.3c-3-0.2-6.1-0.4-9.1-0.6c-4.9-0.4-10-0.6-15-0.6c-5.8,0-10.5,0.2-15,0.6
					c-2.4,0.2-4.8,0.6-7.4,1c-0.7,0.1-1.3,0.3-2,0.4c-1.8,0.4-3.6,0.7-5.3,1.3c-4.3,1.1-8.9,2.8-14.1,5.1c-4.3,1.9-8.7,4.3-13.3,7.2
					C88.4,237.6,85.5,239.7,82.9,241.7z"/>
				<path class="st8" d="M305.3,209.9c-15.4,3.4-32,6.3-50.5,8.8c-10.7,1.5-20.6,2.5-30.3,3.2c-6.1,0.4-12.5,0.6-19,0.6
					c-3.8,0-7.7-0.1-11.6-0.2c-7.1-0.3-14.3-0.8-21.3-1.3c-3-0.2-6.1-0.4-9.1-0.6c-4.9-0.4-10-0.6-15.1-0.6c-5.8,0-10.5,0.2-15,0.6
					c-2.4,0.2-4.8,0.6-7.4,1c-0.6,0.1-1.3,0.3-1.9,0.4c-1.8,0.4-3.6,0.7-5.3,1.3c-4.4,1.1-9,2.8-14.1,5.1c-4.3,1.9-8.7,4.3-13.3,7.2
					c-1.6,1.1-3.2,2.1-4.7,3.1c1.4-1.2,2.8-2.4,4.4-3.6c3.9-3,8.2-5.8,12.8-8.3c4.9-2.6,9.5-4.6,14.1-6.1c1.8-0.7,3.8-1.2,5.7-1.7
					c0.6-0.1,1.2-0.3,1.7-0.4c2.4-0.5,5-1,7.6-1.4c5.8-0.8,12.1-1.2,19.2-1.2c3.4,0,7.2,0.1,11.4,0.3c4.1,0.2,8.2,0.4,12.2,0.7
					c5.9,0.4,12.1,0.7,18.1,0.9c4.4,0.2,9,0.3,13.6,0.3c17.1,0,34-1.4,46.8-2.6C270.9,213.8,287.6,212,305.3,209.9 M314.8,208.2
					c-20.1,2.5-40.3,4.8-60.4,6.7c-15.6,1.5-31.2,2.6-46.8,2.6c-4.5,0-9-0.1-13.6-0.3c-10.1-0.3-20.1-1.1-30.3-1.6
					c-3.8-0.2-7.6-0.3-11.5-0.3c-6.4,0-12.9,0.3-19.3,1.2c-2.6,0.3-5.1,0.9-7.7,1.4c-2.5,0.7-5.1,1.2-7.5,2.1
					c-4.9,1.6-9.6,3.7-14.2,6.2c-4.5,2.5-8.8,5.2-12.9,8.4c-4.1,3.1-7.9,6.5-11.3,10.3c3.8-3.4,7.9-6.3,12.2-9
					c4.2-2.7,8.6-5.1,13.2-7.2c4.5-2.1,9.2-3.9,14-5.1c2.4-0.7,4.8-1.1,7.2-1.7c2.4-0.4,4.9-0.8,7.3-1c5-0.5,9.9-0.6,14.9-0.6
					c5,0.1,10,0.3,15,0.6c10,0.7,20.2,1.5,30.4,1.9c3.9,0.1,7.8,0.2,11.6,0.2c6.3,0,12.7-0.2,19-0.6c10.2-0.7,20.3-1.8,30.4-3.2
					C275,216.5,295.1,213,314.8,208.2L314.8,208.2z"/>
			</g>
			
				<linearGradient id="SVGID_7_" gradientUnits="userSpaceOnUse" x1="294.0282" y1="109.7787" x2="314.8622" y2="73.693" gradientTransform="matrix(1 0 0 -1 0 313.2756)">
				<stop  offset="0" style="stop-color:#EEEEFA"/>
				<stop  offset="9.640000e-02" style="stop-color:#C3C3CE"/>
				<stop  offset="0.1839" style="stop-color:#A3A3AE"/>
				<stop  offset="0.257" style="stop-color:#90909A"/>
				<stop  offset="0.3068" style="stop-color:#898993"/>
				<stop  offset="0.3168" style="stop-color:#9A9AA4"/>
				<stop  offset="0.3363" style="stop-color:#B4B4BF"/>
				<stop  offset="0.3587" style="stop-color:#C9C9D5"/>
				<stop  offset="0.3849" style="stop-color:#DADAE6"/>
				<stop  offset="0.4173" style="stop-color:#E6E6F1"/>
				<stop  offset="0.4627" style="stop-color:#ECECF8"/>
				<stop  offset="0.5888" style="stop-color:#EEEEFA"/>
				<stop  offset="0.5999" style="stop-color:#EBEBF6"/>
				<stop  offset="0.7001" style="stop-color:#D0D0DA"/>
				<stop  offset="0.8006" style="stop-color:#BDBDC6"/>
				<stop  offset="0.9006" style="stop-color:#B2B2BA"/>
				<stop  offset="1" style="stop-color:#AEAEB6"/>
			</linearGradient>
			
				<linearGradient id="SVGID_8_" gradientUnits="userSpaceOnUse" x1="280.4321" y1="55.3234" x2="325.4679" y2="133.3278" gradientTransform="matrix(1 0 0 -1 0 313.2756)">
				<stop  offset="0" style="stop-color:#EEEEFA"/>
				<stop  offset="9.640000e-02" style="stop-color:#C3C3CE"/>
				<stop  offset="0.1839" style="stop-color:#A3A3AE"/>
				<stop  offset="0.257" style="stop-color:#90909A"/>
				<stop  offset="0.3068" style="stop-color:#898993"/>
				<stop  offset="0.3168" style="stop-color:#9A9AA4"/>
				<stop  offset="0.3363" style="stop-color:#B4B4BF"/>
				<stop  offset="0.3587" style="stop-color:#C9C9D5"/>
				<stop  offset="0.3849" style="stop-color:#DADAE6"/>
				<stop  offset="0.4173" style="stop-color:#E6E6F1"/>
				<stop  offset="0.4627" style="stop-color:#ECECF8"/>
				<stop  offset="0.5888" style="stop-color:#EEEEFA"/>
				<stop  offset="0.5999" style="stop-color:#EBEBF6"/>
				<stop  offset="0.7001" style="stop-color:#D0D0DA"/>
				<stop  offset="0.8006" style="stop-color:#BDBDC6"/>
				<stop  offset="0.9006" style="stop-color:#B2B2BA"/>
				<stop  offset="1" style="stop-color:#AEAEB6"/>
			</linearGradient>
			<path class="st9" d="M224.8,225.4c13.1-1.1,26.2-2.4,39.2-4.1c6.5-0.8,13-1.7,19.4-2.8c6.5-1,12.9-2.3,19.2-3.6l9.6-2.2l4.8-1.1
				c1.6-0.4,3.3-0.6,4.9-0.9c6.5-1.2,13.1-2,19.8-2.4l5-0.3h5c3.3,0,6.6,0.2,10,0.5c6.6,0.6,13.2,1.6,19.4,4
				c-6.5-1.1-13-1.3-19.5-1.2s-13,0.5-19.5,1.2c-6.4,0.8-12.9,1.6-19.3,2.9c-6.4,1.2-12.7,2.6-19.2,4c-13,2.6-26.1,4.2-39.3,5.2
				C251.1,225.4,238,225.8,224.8,225.4z"/>
			
				<linearGradient id="SVGID_9_" gradientUnits="userSpaceOnUse" x1="333.2622" y1="96.8917" x2="350.9795" y2="66.2043" gradientTransform="matrix(1 0 0 -1 0 313.2756)">
				<stop  offset="0" style="stop-color:#EEEEFA"/>
				<stop  offset="9.640000e-02" style="stop-color:#C3C3CE"/>
				<stop  offset="0.1839" style="stop-color:#A3A3AE"/>
				<stop  offset="0.257" style="stop-color:#90909A"/>
				<stop  offset="0.3068" style="stop-color:#898993"/>
				<stop  offset="0.3168" style="stop-color:#9A9AA4"/>
				<stop  offset="0.3363" style="stop-color:#B4B4BF"/>
				<stop  offset="0.3587" style="stop-color:#C9C9D5"/>
				<stop  offset="0.3849" style="stop-color:#DADAE6"/>
				<stop  offset="0.4173" style="stop-color:#E6E6F1"/>
				<stop  offset="0.4627" style="stop-color:#ECECF8"/>
				<stop  offset="0.5888" style="stop-color:#EEEEFA"/>
				<stop  offset="0.5999" style="stop-color:#EBEBF6"/>
				<stop  offset="0.7001" style="stop-color:#D0D0DA"/>
				<stop  offset="0.8006" style="stop-color:#BDBDC6"/>
				<stop  offset="0.9006" style="stop-color:#B2B2BA"/>
				<stop  offset="1" style="stop-color:#AEAEB6"/>
			</linearGradient>
			
				<linearGradient id="SVGID_10_" gradientUnits="userSpaceOnUse" x1="328.779" y1="63.4339" x2="355.1904" y2="109.1799" gradientTransform="matrix(1 0 0 -1 0 313.2756)">
				<stop  offset="0" style="stop-color:#EEEEFA"/>
				<stop  offset="9.640000e-02" style="stop-color:#C3C3CE"/>
				<stop  offset="0.1839" style="stop-color:#A3A3AE"/>
				<stop  offset="0.257" style="stop-color:#90909A"/>
				<stop  offset="0.3068" style="stop-color:#898993"/>
				<stop  offset="0.3168" style="stop-color:#9A9AA4"/>
				<stop  offset="0.3363" style="stop-color:#B4B4BF"/>
				<stop  offset="0.3587" style="stop-color:#C9C9D5"/>
				<stop  offset="0.3849" style="stop-color:#DADAE6"/>
				<stop  offset="0.4173" style="stop-color:#E6E6F1"/>
				<stop  offset="0.4627" style="stop-color:#ECECF8"/>
				<stop  offset="0.5888" style="stop-color:#EEEEFA"/>
				<stop  offset="0.5999" style="stop-color:#EBEBF6"/>
				<stop  offset="0.7001" style="stop-color:#D0D0DA"/>
				<stop  offset="0.8006" style="stop-color:#BDBDC6"/>
				<stop  offset="0.9006" style="stop-color:#B2B2BA"/>
				<stop  offset="1" style="stop-color:#AEAEB6"/>
			</linearGradient>
			<path class="st10" d="M289.1,226.5c8.9-2.2,17.8-4.3,26.7-6.2c4.4-1,8.9-2,13.5-2.8c4.5-0.8,9.1-1.5,13.7-2
				c9.2-0.9,18.6-1.2,27.9,0.7c4.6,0.9,9.2,2.5,13.2,5.3c4,2.7,6.9,7,7.5,11.6c-1.7-4.3-4.9-7.7-8.8-9.6c-3.9-2-8.2-3-12.6-3.6
				c-4.4-0.5-8.9-0.7-13.3-0.5c-4.5,0.1-9,0.4-13.5,0.9c-9,0.9-17.9,2.4-27,3.8C307.4,225.2,298.3,226.2,289.1,226.5z"/>
			
				<linearGradient id="SVGID_11_" gradientUnits="userSpaceOnUse" x1="174.7" y1="395.4324" x2="250.536" y2="395.4324" gradientTransform="matrix(1 0 0 1 0 -188)">
				<stop  offset="0" style="stop-color:#EEEEFA"/>
				<stop  offset="9.640000e-02" style="stop-color:#C3C3CE"/>
				<stop  offset="0.1839" style="stop-color:#A3A3AE"/>
				<stop  offset="0.257" style="stop-color:#90909A"/>
				<stop  offset="0.3068" style="stop-color:#898993"/>
				<stop  offset="0.3168" style="stop-color:#9A9AA4"/>
				<stop  offset="0.3363" style="stop-color:#B4B4BF"/>
				<stop  offset="0.3587" style="stop-color:#C9C9D5"/>
				<stop  offset="0.3849" style="stop-color:#DADAE6"/>
				<stop  offset="0.4173" style="stop-color:#E6E6F1"/>
				<stop  offset="0.4627" style="stop-color:#ECECF8"/>
				<stop  offset="0.5888" style="stop-color:#EEEEFA"/>
				<stop  offset="0.5999" style="stop-color:#EBEBF6"/>
				<stop  offset="0.7001" style="stop-color:#D0D0DA"/>
				<stop  offset="0.8006" style="stop-color:#BDBDC6"/>
				<stop  offset="0.9006" style="stop-color:#B2B2BA"/>
				<stop  offset="1" style="stop-color:#AEAEB6"/>
			</linearGradient>
			<path class="st11" d="M240.8,200.8c-16.5-1.6-43.7,1.8-65.1,12.9c0,0,33,2.5,69.3-1.7C245,211.9,257.6,202.4,240.8,200.8z"/>
			
				<linearGradient id="SVGID_12_" gradientUnits="userSpaceOnUse" x1="246.2999" y1="122.4087" x2="271.1575" y2="79.354" gradientTransform="matrix(1 0 0 -1 0 313.2756)">
				<stop  offset="0" style="stop-color:#EEEEFA"/>
				<stop  offset="9.640000e-02" style="stop-color:#C3C3CE"/>
				<stop  offset="0.1839" style="stop-color:#A3A3AE"/>
				<stop  offset="0.257" style="stop-color:#90909A"/>
				<stop  offset="0.3068" style="stop-color:#898993"/>
				<stop  offset="0.3168" style="stop-color:#9A9AA4"/>
				<stop  offset="0.3363" style="stop-color:#B4B4BF"/>
				<stop  offset="0.3587" style="stop-color:#C9C9D5"/>
				<stop  offset="0.3849" style="stop-color:#DADAE6"/>
				<stop  offset="0.4173" style="stop-color:#E6E6F1"/>
				<stop  offset="0.4627" style="stop-color:#ECECF8"/>
				<stop  offset="0.5888" style="stop-color:#EEEEFA"/>
				<stop  offset="0.5999" style="stop-color:#EBEBF6"/>
				<stop  offset="0.7001" style="stop-color:#D0D0DA"/>
				<stop  offset="0.8006" style="stop-color:#BDBDC6"/>
				<stop  offset="0.9006" style="stop-color:#B2B2BA"/>
				<stop  offset="1" style="stop-color:#AEAEB6"/>
			</linearGradient>
			
				<linearGradient id="SVGID_13_" gradientUnits="userSpaceOnUse" x1="232.9456" y1="62.2122" x2="281.0544" y2="145.539" gradientTransform="matrix(1 0 0 -1 0 313.2756)">
				<stop  offset="0" style="stop-color:#EEEEFA"/>
				<stop  offset="9.640000e-02" style="stop-color:#C3C3CE"/>
				<stop  offset="0.1839" style="stop-color:#A3A3AE"/>
				<stop  offset="0.257" style="stop-color:#90909A"/>
				<stop  offset="0.3068" style="stop-color:#898993"/>
				<stop  offset="0.3168" style="stop-color:#9A9AA4"/>
				<stop  offset="0.3363" style="stop-color:#B4B4BF"/>
				<stop  offset="0.3587" style="stop-color:#C9C9D5"/>
				<stop  offset="0.3849" style="stop-color:#DADAE6"/>
				<stop  offset="0.4173" style="stop-color:#E6E6F1"/>
				<stop  offset="0.4627" style="stop-color:#ECECF8"/>
				<stop  offset="0.5888" style="stop-color:#EEEEFA"/>
				<stop  offset="0.5999" style="stop-color:#EBEBF6"/>
				<stop  offset="0.7001" style="stop-color:#D0D0DA"/>
				<stop  offset="0.8006" style="stop-color:#BDBDC6"/>
				<stop  offset="0.9006" style="stop-color:#B2B2BA"/>
				<stop  offset="1" style="stop-color:#AEAEB6"/>
			</linearGradient>
			<path class="st12" d="M169.5,214c6.2-4.2,12.9-7.6,19.8-10.6c6.9-2.9,14.1-5.3,21.4-7c7.3-1.8,14.9-2.8,22.5-3.1
				c3.8-0.1,7.6-0.1,11.4,0.3c3.8,0.3,7.4,0.7,11.2,1.1c7.4,0.8,14.8,1.8,22.2,2.7l22.1,3.1c14.7,2,29.5,3.2,44.4,4.3
				c-14.9,0.9-29.9,0.7-44.8-0.6c-14.9-1.2-29.7-3.3-44.4-4.8c-3.7-0.4-7.4-0.8-11.1-1.2c-3.6-0.4-7.3-0.4-10.9-0.4
				c-7.3,0.1-14.6,0.9-21.8,2.2C197,202.6,182.8,207.4,169.5,214z"/>
			<g>
				<path class="st8" d="M101.8,233.5c2.2-1.4,4.6-2.4,7-3.3c3.2-1.2,6.7-2.2,10.8-3c6.6-1.3,13.7-2,22.3-2.2h0.9
					c6.3,0,13.3,0.3,21.4,1l22.1,1.5c5,0.3,10.1,0.6,15.1,0.9c2.4,0.1,4.7,0.3,7.1,0.4c7.5,0.3,14.7,0.6,22.1,0.8
					c2.7,0.1,5.4,0.1,8.2,0.1c10,0,20.4-0.4,31.7-1.2c-12.8,2.3-26.2,3.7-39.9,4.1c-3.6,0.1-7.3,0.2-11.1,0.2
					c-9.9,0-20.6-0.3-33.5-1.1c-7.5-0.4-14.9-1-22.2-1.6c-1.9-0.1-3.8-0.3-5.7-0.5c-5.4-0.4-10.9-0.9-16.4-1.1
					c-1.9-0.1-3.9-0.1-5.7-0.1c-5.8,0-11.1,0.3-16.3,0.8c-3.4,0.4-7.2,0.9-10.8,1.9C106.7,231.8,104.2,232.5,101.8,233.5z"/>
				<path class="st8" d="M142.8,225.3c6.3,0,13.3,0.3,21.4,1l22.1,1.5c5,0.3,10.1,0.6,15.1,0.9c2.4,0.1,4.7,0.3,7.1,0.4
					c7.5,0.3,14.8,0.6,22.1,0.8c2.7,0.1,5.4,0.1,8.2,0.1c8.5,0,17.4-0.3,26.8-0.9c-11.3,1.8-23,2.9-35,3.2
					c-3.6,0.1-7.3,0.2-11.1,0.2c-9.9,0-20.6-0.4-33.5-1.1c-7.5-0.4-14.9-1-22.2-1.6c-1.9-0.1-3.8-0.3-5.6-0.5
					c-5.4-0.4-10.9-0.9-16.4-1.1c-1.9-0.1-3.9-0.1-5.7-0.1c-5.8,0-11.1,0.3-16.3,0.8c-3.4,0.4-7.2,0.9-10.9,1.9
					c-1.2,0.3-2.4,0.6-3.6,1c1.1-0.5,2.3-1,3.5-1.4c3.2-1.2,6.7-2.2,10.8-3c6.6-1.3,13.6-2,22.3-2.2L142.8,225.3 M142.8,224.8
					c-0.3,0-0.6,0-0.9,0c-7.5,0.2-15,0.8-22.4,2.2c-3.7,0.8-7.3,1.7-10.8,3s-7,2.9-9.8,5.3c3.2-1.9,6.7-3,10.3-3.9
					c3.5-0.9,7.2-1.4,10.8-1.9c5.4-0.6,10.8-0.8,16.2-0.8c1.9,0,3.8,0,5.7,0.1c7.3,0.2,14.6,0.9,22,1.5s14.8,1.2,22.2,1.6
					c11.1,0.6,22.3,1.1,33.5,1.1c3.7,0,7.4,0,11.1-0.2c14.9-0.4,29.8-2,44.3-4.9c-12.1,0.9-24.1,1.5-36.1,1.5c-2.7,0-5.4,0-8.2-0.1
					c-7.4-0.1-14.8-0.5-22.1-0.8c-7.4-0.4-14.8-0.8-22.1-1.3l-22.1-1.5C157.2,225.2,150,224.8,142.8,224.8L142.8,224.8z"/>
			</g>
			<g>
				<path class="st8" d="M121.8,242.7c1.8-3.2,4.6-6,8.1-8.1c3.8-2.2,8.3-3.4,12.9-3.4c4.7,0,9.2,1.2,13,3.3c3.6,2,6.4,4.8,8.2,8
					c-2.7-2.6-5.8-4.6-9.2-6c-3.8-1.5-7.7-2.3-11.7-2.3h-0.4c-4,0-8,0.8-11.8,2.4C127.5,238.1,124.5,240.1,121.8,242.7z"/>
				<path class="st8" d="M142.9,231.5c4.7,0,9.1,1.1,12.8,3.3c2.9,1.6,5.4,3.8,7.1,6.3c-2.4-2-5-3.6-7.9-4.8
					c-3.8-1.6-7.8-2.3-11.8-2.3h-0.3h-0.1c-4,0-8.1,0.8-11.9,2.5c-2.8,1.2-5.5,2.9-7.8,4.9c1.7-2.5,4.1-4.7,7-6.4
					C133.8,232.7,138.2,231.5,142.9,231.5 M142.9,230.9c-4.6,0-9.1,1.2-13.1,3.5c-3.9,2.2-7.2,5.6-9,9.7c2.9-3.2,6.4-5.6,10.2-7.3
					c3.7-1.6,7.7-2.4,11.7-2.4h0.1c0.1,0,0.2,0,0.3,0c3.9,0,7.9,0.8,11.6,2.3c3.8,1.6,7.3,3.9,10.3,7.1c-1.8-4-5.1-7.4-9.1-9.5
					C152,232,147.4,231,142.9,230.9L142.9,230.9z"/>
			</g>
			
				<linearGradient id="SVGID_14_" gradientUnits="userSpaceOnUse" x1="336.695" y1="82.449" x2="346.6012" y2="65.2906" gradientTransform="matrix(1 0 0 -1 0 313.2756)">
				<stop  offset="0" style="stop-color:#EEEEFA"/>
				<stop  offset="9.640000e-02" style="stop-color:#C3C3CE"/>
				<stop  offset="0.1839" style="stop-color:#A3A3AE"/>
				<stop  offset="0.257" style="stop-color:#90909A"/>
				<stop  offset="0.3068" style="stop-color:#898993"/>
				<stop  offset="0.3168" style="stop-color:#9A9AA4"/>
				<stop  offset="0.3363" style="stop-color:#B4B4BF"/>
				<stop  offset="0.3587" style="stop-color:#C9C9D5"/>
				<stop  offset="0.3849" style="stop-color:#DADAE6"/>
				<stop  offset="0.4173" style="stop-color:#E6E6F1"/>
				<stop  offset="0.4627" style="stop-color:#ECECF8"/>
				<stop  offset="0.5888" style="stop-color:#EEEEFA"/>
				<stop  offset="0.5999" style="stop-color:#EBEBF6"/>
				<stop  offset="0.7001" style="stop-color:#D0D0DA"/>
				<stop  offset="0.8006" style="stop-color:#BDBDC6"/>
				<stop  offset="0.9006" style="stop-color:#B2B2BA"/>
				<stop  offset="1" style="stop-color:#AEAEB6"/>
			</linearGradient>
			
				<linearGradient id="SVGID_15_" gradientUnits="userSpaceOnUse" x1="335.2804" y1="60.8111" x2="351.7364" y2="89.3139" gradientTransform="matrix(1 0 0 -1 0 313.2756)">
				<stop  offset="0" style="stop-color:#EEEEFA"/>
				<stop  offset="9.640000e-02" style="stop-color:#C3C3CE"/>
				<stop  offset="0.1839" style="stop-color:#A3A3AE"/>
				<stop  offset="0.257" style="stop-color:#90909A"/>
				<stop  offset="0.3068" style="stop-color:#898993"/>
				<stop  offset="0.3168" style="stop-color:#9A9AA4"/>
				<stop  offset="0.3363" style="stop-color:#B4B4BF"/>
				<stop  offset="0.3587" style="stop-color:#C9C9D5"/>
				<stop  offset="0.3849" style="stop-color:#DADAE6"/>
				<stop  offset="0.4173" style="stop-color:#E6E6F1"/>
				<stop  offset="0.4627" style="stop-color:#ECECF8"/>
				<stop  offset="0.5888" style="stop-color:#EEEEFA"/>
				<stop  offset="0.5999" style="stop-color:#EBEBF6"/>
				<stop  offset="0.7001" style="stop-color:#D0D0DA"/>
				<stop  offset="0.8006" style="stop-color:#BDBDC6"/>
				<stop  offset="0.9006" style="stop-color:#B2B2BA"/>
				<stop  offset="1" style="stop-color:#AEAEB6"/>
			</linearGradient>
			<path class="st13" d="M316,240.9c1.9-5,5.6-9.5,10.2-12.6s10.3-4.8,15.9-4.8s11.3,1.6,16,4.6s8.4,7.4,10.4,12.4
				c-3.4-4.1-7.5-7.4-12-9.6c-4.5-2.2-9.4-3.4-14.4-3.3c-4.9,0-9.9,1.2-14.3,3.5C323.3,233.4,319.3,236.7,316,240.9z"/>
		</g>
	</g>
</g>
<g>
	<path class="st14" d="M157,281.8"/>
	<path class="st8" d="M187.9,275.7c-0.9-0.8-2.3-1.9-4.3-3.2c-2.1-1.3-3.4-2.2-3.9-2.5c-1.5-1.2-2.2-2.5-2.2-3.8
		c0-1.2,0.5-2.1,1.3-2.8c0.8-0.6,1.8-0.9,3-0.9c1.4,0,2.7,0.4,3.9,1.3c0.6,0.5,0.6,0,0.5-0.6c-0.2-0.4-0.5-0.9-0.7-1
		c-1.3-0.5-2.7-0.7-3.9-0.7c-1.3,0-2.5,0.2-3.5,0.7c-2.3,1.1-3.4,2.7-3.4,4.9c0,1.6,0.7,3.1,2.1,4.5c0.8,0.8,2.2,1.8,4.2,3.1
		c2,1.3,3.4,2.2,3.9,2.7c1.5,1.3,2.2,2.6,2.2,3.9c0,1.4-0.5,2.6-1.7,3.4c-1,0.8-2.3,1.2-3.7,1.2c-1.6,0-3.1-0.5-4.3-1.6
		c-1.2-1-0.2,2,0.6,1.9s3.1,0.7,4,0.7c2.1,0,3.9-0.6,5.5-1.7c1.7-1.2,2.5-2.9,2.5-5C190,278.7,189.3,277.1,187.9,275.7z"/>
	<g>
		<path class="st14" d="M243.4,265.8"/>
		<path class="st8" d="M230.5,277.6"/>
		<path class="st8" d="M234.2,293.6"/>
		<path class="st8" d="M235.7,280.6c-0.3,1.2-0.7,2-1,2.7c-0.7,1.2-1.8,1.7-3.5,1.7h-6c-0.8,0-1.4-0.1-1.7-0.5
			c-0.3-0.3-0.5-0.9-0.5-1.7v-8.3h6.6c1,0,1.7,0.3,2.1,0.8c0.3,0.4,0.5,1.2,0.6,2.3h0.7v-7.4h-0.7c-0.1,0.9-0.2,1.6-0.5,2
			c-0.4,0.6-1,0.9-1.8,0.9h-7v-9.6h8.2c1.5,0,2.5,1.3,2.9,4h0.7l-0.3-5.4h-18.7v0.7h0.9c0.9,0,1.5,0.1,2,0.3
			c0.8,0.4,1.1,1.3,1.1,2.8v16.5c0,0.8-0.1,1.5-0.3,1.9c-0.4,0.9-1.5,1.3-3.4,1.3l-1.1,0.7h20.7l0.6-5.8h-0.6V280.6z"/>
		<path class="st8" d="M212.3,280.6c-0.3,1.2-0.7,2-1,2.7c-0.7,1.2-1.8,1.7-3.5,1.7h-6c-0.8,0-1.4-0.1-1.7-0.5
			c-0.3-0.3-0.5-0.9-0.5-1.7v-8.3h6.6c1,0,1.7,0.3,2.1,0.8c0.3,0.4,0.5,1.2,0.6,2.3h0.7v-7.4h-0.7c-0.1,0.9-0.2,1.6-0.5,2
			c-0.4,0.6-1,0.9-1.8,0.9h-7v-9.6h8.2c1.5,0,2.5,1.3,2.9,4h0.7l-0.3-5.4h-18.7v0.7h0.9c0.9,0,1.5,0.1,2,0.3
			c0.8,0.4,1.1,1.3,1.1,2.8v16.5c0,0.8-0.1,1.5-0.3,1.9c-0.4,0.9-1.5,1.3-3.4,1.3l-1.1,0.7h20.7l0.6-5.8h-0.6V280.6z"/>
		<path class="st8" d="M266.4,285.5c-1.6-0.6-3.2-1.7-4.9-3.3l-3.1-3.1c-1.8-1.8-3.3-3.1-4.5-4.1c1.5-0.4,2.8-1.2,3.7-2.3
			c1-1.2,1.5-2.5,1.5-4c0-2.1-0.8-3.8-2.5-5c-1.8-1.3-4.4-1.9-7.9-1.9c-1.6,0-3.3,0-4.9,0.1c-0.6,0-1,0-1.5,0.1
			c-1.8,0.1-2.9,0.2-3.4,0.2v0.7h0.8c1.2,0,1.9,0.2,2.3,0.7c0.4,0.5,0.6,1.3,0.6,2.4v16.4c0,1.2-0.2,2.1-0.6,2.5
			c-0.4,0.5-1.3,0.7-2.5,0.7h-0.7v0.7h11v-0.7H249c-0.8,0-1.4-0.1-1.8-0.2c-0.9-0.3-1.3-1.2-1.3-2.7v-6.6c0.8,0,1.5,0.1,2,0.1
			s1.4,0,2.6-0.1c1,0.6,2.3,1.8,4,3.5l2.6,2.6c1.9,1.9,3.5,3.2,4.9,3.8c1.4,0.6,3.2,0.9,5.6,0.9c0.5,0,1.1,0,1.6,0v-0.7
			C268.2,286,267.3,285.8,266.4,285.5z M248.3,275.5c-1.2,0-2,0-2.4-0.1v-12.8c0.5,0,1.1-0.1,1.9-0.1c1.9,0,3.4,0.3,4.6,0.8
			c2,1,3.1,2.9,3.1,5.6C255.5,273.3,253.1,275.5,248.3,275.5z"/>
		<path class="st8" d="M289.3,281.1c-0.3,1.2-0.7,2-1,2.7c-0.7,1.2-1.8,1.7-3.5,1.7h-6c-0.8,0-1.4-0.1-1.7-0.5
			c-0.3-0.3-0.4-0.9-0.4-1.7V275h6.6c1,0,1.7,0.3,2.1,0.8c0.3,0.4,0.5,1.2,0.6,2.3h0.7v-7.4H286c-0.1,0.9-0.2,1.6-0.5,2
			c-0.4,0.6-0.9,0.9-1.8,0.9h-7V264h8.2c1.5,0,2.5,1.3,2.9,4h0.7l-0.3-5.4h-18.7v0.7h0.9c0.9,0,1.5,0.1,2,0.3
			c0.8,0.4,1.1,1.3,1.1,2.8v16.5c0,0.8-0.1,1.5-0.3,1.9c-0.4,0.9-1.5,1.3-3.4,1.3h-1.1v0.7h20.7l0.6-5.8h-0.7L289.3,281.1
			L289.3,281.1z"/>
		<g>
			<path class="st8" d="M218.8,297.5l-0.5,2.5c-0.4-0.4-0.9-0.7-1.4-0.7c-0.9,0-2.1,0.4-3.3,1.3s-1.9,1.8-1.9,2.8
				c0,0.8,0.7,1.3,2.1,1.6l2.6,0.5c1,0.2,1.6,0.6,1.6,1.1c0,0.9-0.2,1.7-0.6,2.3c-0.6,1-2,1.9-4.3,2.9s-4.3,1.4-6.1,1.4
				c-1.9,0-3.5-0.4-4.6-1.3s-1.7-2-1.7-3.5c0-1.2,0.3-2.5,0.9-3.8c0.3-0.7,0.8-2.8,1.8-4.4l0.5,1.2c-1.3,2.4-1.9,4.2-1.9,5.4
				c0,1.2,0.5,2.2,1.6,2.9s2.4,1.1,4.1,1.1c1.7,0,3.7-0.4,5.9-1.2c2.1-0.8,3.2-1.4,3.2-1.8c0-0.3-0.3-0.5-0.9-0.6l-2.5-0.3
				c-2-0.3-3-1.1-3-2.4c0-1.1,0.9-2.6,2.7-4.6c1.6-1.7,3.1-2.5,4.6-2.5C218,297.3,218.4,297.3,218.8,297.5z M211.4,315.3l-1.2,1.8
				l-1.8-1.2l-1,1.7l-1.9-1.2l1.1-1.9l1.8,1.2l1-1.6L211.4,315.3z"/>
			<path class="st8" d="M228.2,303.6c0,0.2-0.1,0.3-0.2,0.4s-0.3,0.2-0.4,0.3s-0.4,0.1-0.6,0.2s-0.5,0.1-0.7,0.1h-0.5
				c-0.3,2.4-1,4.3-2.1,5.8s-2.4,2.2-4,2.2c-0.8,0-2-0.3-3.8-0.8l0.3-0.3c0.5,0.1,0.8,0.1,1.1,0.1c1.6,0,3.2-0.6,4.7-1.8
				c1.5-1.2,2.5-2.7,3-4.4l-1.4-2.2l0.9-1.9c0.7,0.8,1.3,1.2,1.8,1.2h0.7c0.3,0,0.6,0.1,0.8,0.2s0.4,0.3,0.4,0.6V303.6z"/>
			<path class="st8" d="M230.1,303.6c0,0.3-0.2,0.5-0.5,0.7s-0.8,0.2-1.4,0.2h-1.9l0.7-2.1h1.9c0.3,0,0.6,0.1,0.8,0.2
				s0.4,0.3,0.4,0.6V303.6z"/>
			<path class="st8" d="M232.1,303.6c0,0.3-0.2,0.5-0.5,0.7s-0.8,0.2-1.4,0.2h-1.9l0.7-2.1h1.9c0.3,0,0.6,0.1,0.8,0.2
				s0.4,0.3,0.4,0.6V303.6z"/>
			<path class="st8" d="M234,303.6c0,0.3-0.2,0.5-0.5,0.7s-0.8,0.2-1.4,0.2h-1.9l0.7-2.1h1.9c0.3,0,0.6,0.1,0.8,0.2s0.4,0.3,0.4,0.6
				V303.6z"/>
			<path class="st8" d="M240.7,303.6c0,0.2-0.1,0.3-0.2,0.4s-0.3,0.2-0.5,0.3s-0.4,0.1-0.6,0.1s-0.4,0-0.6,0c-0.6,0-1.2-0.2-1.6-0.6
				s-0.8-0.9-0.9-1.6h-0.1c-0.5,0.8-1.1,1.4-1.8,1.7s-1.4,0.5-2.3,0.5l0.7-2.1c0.4,0,0.7,0,1.1-0.1s0.7-0.2,1-0.4s0.7-0.5,1-0.8
				s0.7-0.8,1-1.4l0.2,0.1c0.1,0.4,0.2,0.7,0.3,1s0.2,0.6,0.4,0.8s0.4,0.4,0.7,0.6s0.6,0.2,1,0.2c0.1,0,0.2,0,0.4,0.1
				s0.3,0.1,0.4,0.2s0.2,0.2,0.3,0.2s0.1,0.2,0.1,0.3L240.7,303.6L240.7,303.6z M239.2,308l-1.2,1.9l-1.8-1.3l-1,1.6l-1.8-1.4
				l1.1-1.8l1.8,1.3l1.1-1.7L239.2,308z"/>
			<path class="st8" d="M242.6,303.6c0,0.3-0.2,0.5-0.5,0.7s-0.8,0.2-1.4,0.2h-1.9l0.7-2.1h1.9c0.3,0,0.6,0.1,0.8,0.2
				s0.4,0.3,0.4,0.6V303.6z"/>
			<path class="st8" d="M244.5,303.6c0,0.3-0.2,0.5-0.5,0.7s-0.8,0.2-1.4,0.2h-1.9l0.7-2.1h1.9c0.3,0,0.6,0.1,0.8,0.2
				s0.4,0.3,0.4,0.6V303.6z"/>
			<path class="st8" d="M246.5,303.6c0,0.3-0.2,0.5-0.5,0.7s-0.8,0.2-1.4,0.2h-1.9l0.7-2.1h1.9c0.3,0,0.6,0.1,0.8,0.2
				s0.4,0.3,0.4,0.6V303.6z"/>
			<path class="st8" d="M260.4,299.2c0,1.2-0.2,2.2-0.7,3s-1.1,1.1-1.8,1.1c-0.7,0-1.6-0.5-2.4-1.4h-0.1c-0.9,1.8-2.2,2.6-3.9,2.6
				c-0.3,0-0.6,0-0.9-0.1s-0.5-0.2-0.7-0.4c-0.1-0.1-0.3-0.3-0.4-0.5s-0.3-0.5-0.5-0.9l0,0c-0.3,0.4-0.6,0.7-0.9,1s-0.7,0.5-1,0.6
				s-0.7,0.2-1.2,0.3s-0.9,0.1-1.4,0.1l0.7-2.1c0.5,0,0.9,0,1.3-0.1s0.8-0.2,1.1-0.4s0.7-0.4,1-0.8s0.7-0.7,1-1.2l0.2,0.1
				c0.1,0.5,0.1,0.8,0.2,1.1s0.2,0.5,0.2,0.7c0.2,0.4,0.6,0.6,1.1,0.6c2.4,0,3.9-1.2,4.5-3.7h0.2c0.2,1.5,1.1,2.2,2.8,2.2
				c0.4,0,0.7-0.1,0.7-0.4c0-0.1-0.3-0.5-0.9-0.9l0.7-2.2C260,297.7,260.4,298.4,260.4,299.2z"/>
		</g>
		<path class="st8" d="M196.4,290.7"/>
		<path class="st8" d="M203.8,297.3"/>
		<path class="st15" d="M203.4,297.8c-0.7-4.2-4.4-6.4-8.1-6.7c-4.1-0.4-13,6.5-16.2,3.9c-3.1-2.6,3.7-1.8,2.4-4.2
			c-1.4-2.4-4-5.2-3.8-5.3c0.2-0.1,0.1,0.5,0.1,0.5"/>
		<path class="st15" d="M203.4,301.2c0.6-1,1.4-2.8,2.3-3.5c0.5-0.4,1.1-0.8,1.7-0.6c0.4,0.1,0.7,0.4,1,0.8c0.2,0.3,0.4,0.7,0.3,1.1
			c-0.2,0.5-0.7,0.7-1.2,0.7c-0.3,0.1-0.7,0.1-1,0.1c-0.5,0-0.9-0.2-1.3-0.4c-0.4-0.2-0.4-0.1-0.8-0.3c-0.4-0.3-0.9-1.1-1-1.5"/>
	</g>
	<polyline class="st8" points="186.7,262.3 186.2,263.9 185.7,262.3 	"/>
	<path class="st8" d="M166.2,287.7"/>
</g>
<path class="st15" d="M177.2,285.4c-0.1-0.8-0.3-1.7-0.5-2.5c-0.2-0.6-0.3-1.3-0.7-1.8s-1-0.9-1.7-0.8c-0.3,0-0.5,0.2-0.7,0.4
	c-0.1,0.2-0.2,0.4-0.2,0.7c0,0.9,0.6,1.6,1.2,2.3c0.2,0.2,0.3,0.4,0.5,0.6c0.3,0.2,0.6,0.4,0.9,0.5c1,0.5,2.1,1,3.2,1.3"/>
</svg>
